<svg width="212" height="28" viewBox="0 0 212 28" fill="none" xmlns="http://www.w3.org/2000/svg">
<path d="M5.5332 21.0384H0L0 7.03152H0.0107422L0 7.02566L5.5332 3.87722L5.5332 21.0384Z" fill="url(#paint0_linear_39935_5224)"/>
<path d="M17.7041 24.8573H17.6895L12.168 27.9998L12.168 21.702L12.1709 21.703L12.1709 14.0623H12.1826L12.1709 14.0555L17.7041 10.9071L17.7041 24.8573Z" fill="url(#paint1_linear_39935_5224)"/>
<path d="M12.1738 14.0611H12.1631L6.64062 17.2036L6.64062 3.15482L12.1738 3.15482L12.1738 14.0611Z" fill="url(#paint2_linear_39935_5224)"/>
<path d="M6.63867 24.8513L12.1721 21.7025L12.1721 28L6.63867 24.8513Z" fill="url(#paint3_linear_39935_5224)"/>
<path d="M24.3555 13.2723L24.3418 13.2645L24.3418 21.0917H24.2324L18.8086 24.1786L18.8086 10.1297H18.834L18.8223 10.1229L24.3555 6.97447V13.2723Z" fill="url(#paint4_linear_39935_5224)"/>
<path d="M24.3485 6.97058L18.8149 10.1193L13.2812 6.97058L18.8149 3.82183L24.3485 6.97058Z" fill="url(#paint5_linear_39935_5224)"/>
<path d="M17.7062 3.14875L12.1723 6.29751L6.63867 3.14875L12.1723 0L17.7062 3.14875Z" fill="url(#paint6_linear_39935_5224)"/>
<path d="M5.58402 17.8976L11.1155 21.0456L5.58402 24.1933L5.58402 24.1944L5.58295 24.1936L5.58224 24.1944L5.58224 24.1933L0.0507812 21.0456L5.58224 17.8976L5.58224 17.8968L5.58295 17.8972L5.58402 17.8968L5.58402 17.8976Z" fill="url(#paint7_linear_39935_5224)"/>
<path d="M133.508 5.06641H138.857L131.19 15.9594V22.7564H126.578V15.893L118.99 5.06641H124.365L128.924 12.0627L133.508 5.06641Z" fill="white"/>
<path d="M115.913 22.7343C115.28 21.1845 114.709 19.7601 114.2 18.4612H107.296L105.294 22.7343H100.577L109.114 5.08854H112.461C113.128 5.08854 113.559 5.30256 113.752 5.73061C114.929 8.57931 117.291 14.2472 120.84 22.7343H115.913ZM112.935 15.3616L111.011 10.5572L108.745 15.3616H112.935Z" fill="white"/>
<path d="M95.1238 5.04427C97.425 5.04427 99.0587 5.48708 100.025 6.37269C101.026 7.27306 101.527 8.80811 101.527 10.9779C101.527 13.1181 101.017 14.6605 99.9985 15.6052C98.9972 16.5498 97.3811 17.0221 95.1502 17.0221H89.9066V22.8007H85.2163V7.21401C85.2163 6.25461 85.2163 5.04427 85.2163 5.04427H95.1238ZM94.0435 13.4797C95.0448 13.4797 95.7474 13.31 96.1515 12.9705C96.5906 12.6015 96.8102 11.9373 96.8102 10.9779C96.8102 9.97416 96.6082 9.30996 96.2042 8.98523C95.8353 8.69003 95.1063 8.54243 94.0171 8.54243H89.9066V13.4797H94.0435Z" fill="white"/>
<path d="M81.4449 22.7122H77.2289V12.0184C77.2289 11.2657 77.2289 5.08854 77.2289 5.08854H81.4449V22.7122Z" fill="white"/>
<path d="M68.2801 22.0258C66.9977 20.2251 64.5033 16.7712 60.7968 11.6642V22.7564H56.37V5.06641H59.5847C60.3576 5.06641 60.8758 5.23615 61.1393 5.57564L68.8861 16.0258V5.06641H73.471V22.7564H69.8347C69.3604 22.7564 69.0442 22.7122 68.8861 22.6236C68.728 22.5498 68.526 22.3505 68.2801 22.0258Z" fill="white"/>
<path d="M34.8574 5H39.574V16.9114C39.574 17.8413 39.8463 18.4908 40.3909 18.8598C40.9705 19.2583 42.0158 19.4576 43.5265 19.4576C44.9845 19.4576 46.0033 19.2583 46.583 18.8598C47.1452 18.4908 47.4262 17.8413 47.4262 16.9114V5H52.1165V16.9114C52.1165 19.4354 51.5543 21.0812 50.4301 21.8487C49.341 22.6162 47.0398 23 43.5265 23C39.8375 23 37.4485 22.5941 36.3594 21.7823C35.3581 21.0295 34.8574 19.4059 34.8574 16.9114V5Z" fill="white"/>
<path d="M206.645 15.4889C208.409 15.7111 209.674 16.1407 210.44 16.7778C211.171 17.3704 211.536 18.2296 211.536 19.3556C211.536 20.6296 211.1 21.5333 210.227 22.0667C209.3 22.6444 207.714 22.9333 205.469 22.9333C203.01 22.9333 201.299 22.637 200.337 22.0444C199.428 21.4815 198.902 20.4444 198.76 18.9333L202.636 18.5778C202.778 19.2593 203.01 19.7037 203.33 19.9111C203.687 20.1333 204.409 20.2444 205.496 20.2444C206.903 20.2444 207.607 19.9481 207.607 19.3556C207.607 19.0444 207.456 18.8148 207.153 18.6667C206.832 18.5185 206.226 18.3926 205.335 18.2889C202.823 18.0074 201.103 17.5333 200.176 16.8667C199.375 16.2889 198.974 15.3852 198.974 14.1556C198.974 11.8296 201.023 10.6667 205.121 10.6667C207.367 10.6667 208.899 10.9111 209.719 11.4C210.538 11.9185 211.029 12.9259 211.189 14.4222L207.474 14.8667C207.456 14.2593 207.278 13.8519 206.939 13.6444C206.618 13.4519 205.995 13.3556 205.068 13.3556C203.642 13.3556 202.93 13.6222 202.93 14.1556C202.93 14.5111 203.126 14.763 203.518 14.9111C203.999 15.1037 205.041 15.2963 206.645 15.4889Z" fill="white"/>
<path d="M196.727 18.2C196.335 19.9926 195.631 21.237 194.615 21.9333C193.618 22.6296 192.023 22.9778 189.831 22.9778C185.323 22.9778 183.068 20.9852 183.068 17C183.068 14.9556 183.647 13.3926 184.806 12.3111C185.982 11.2296 187.675 10.6889 189.884 10.6889C191.702 10.6889 193.127 10.9852 194.161 11.5778C195.212 12.2 196.023 13.237 196.593 14.6889L193.092 15.6222C192.878 14.837 192.531 14.2889 192.049 13.9778C191.604 13.6815 190.945 13.5333 190.071 13.5333C189.002 13.5333 188.218 13.7852 187.719 14.2889C187.202 14.8222 186.944 15.6963 186.944 16.9111C186.944 19.0296 187.969 20.0889 190.018 20.0889C190.98 20.0889 191.684 19.9111 192.13 19.5556C192.611 19.1852 192.94 18.5111 193.119 17.5333L196.727 18.2Z" fill="white"/>
<path d="M166.703 16.7778C166.703 14.6444 167.256 13.0889 168.36 12.1111C169.483 11.1185 171.327 10.6222 173.893 10.6222C176.406 10.6222 178.241 11.1259 179.4 12.1333C180.522 13.1259 181.083 14.6741 181.083 16.7778C181.083 18.9555 180.531 20.5333 179.426 21.5111C178.304 22.5037 176.459 23 173.893 23C171.345 23 169.51 22.5111 168.387 21.5333C167.264 20.5556 166.703 18.9704 166.703 16.7778ZM170.659 16.8C170.659 18.0296 170.9 18.8889 171.381 19.3778C171.862 19.8518 172.699 20.0889 173.893 20.0889C175.087 20.0889 175.916 19.8667 176.379 19.4222C176.878 18.9481 177.128 18.0741 177.128 16.8C177.128 15.5704 176.869 14.7037 176.352 14.2C175.871 13.7259 175.052 13.4889 173.893 13.4889C172.699 13.4889 171.862 13.7333 171.381 14.2222C170.9 14.7111 170.659 15.5704 170.659 16.8Z" fill="white"/>
<path d="M155.625 5C158.262 5 160.4 5.77777 162.04 7.33333C163.75 8.94815 164.606 11.1556 164.606 13.9556C164.606 16.8444 163.786 19.0519 162.147 20.5778C160.578 22.0296 158.404 22.7556 155.625 22.7556H146.857V5H155.625ZM154.449 19.1778C158.048 19.1778 159.848 17.437 159.848 13.9556C159.848 12.2518 159.313 10.8963 158.244 9.88889C157.264 8.97037 155.999 8.51111 154.449 8.51111H151.455V19.1778H154.449Z" fill="white"/>
<defs>
<linearGradient id="paint0_linear_39935_5224" x1="0.16704" y1="21.0384" x2="5.5332" y2="21.0384" gradientUnits="userSpaceOnUse">
<stop stop-color="#DDC99C"/>
<stop offset="1" stop-color="#9D8263"/>
</linearGradient>
<linearGradient id="paint1_linear_39935_5224" x1="12.3351" y1="27.9998" x2="17.7041" y2="27.9998" gradientUnits="userSpaceOnUse">
<stop stop-color="#DDC99C"/>
<stop offset="1" stop-color="#9D8263"/>
</linearGradient>
<linearGradient id="paint2_linear_39935_5224" x1="6.80767" y1="17.2036" x2="12.1738" y2="17.2036" gradientUnits="userSpaceOnUse">
<stop stop-color="#DDC99C"/>
<stop offset="1" stop-color="#9D8263"/>
</linearGradient>
<linearGradient id="paint3_linear_39935_5224" x1="12.1721" y1="27.8099" x2="12.1721" y2="21.7025" gradientUnits="userSpaceOnUse">
<stop stop-color="#DDC99C"/>
<stop offset="1" stop-color="#9D8263"/>
</linearGradient>
<linearGradient id="paint4_linear_39935_5224" x1="18.976" y1="24.1786" x2="24.3555" y2="24.1786" gradientUnits="userSpaceOnUse">
<stop stop-color="#DDC99C"/>
<stop offset="1" stop-color="#9D8263"/>
</linearGradient>
<linearGradient id="paint5_linear_39935_5224" x1="13.6154" y1="10.1193" x2="24.3485" y2="10.1193" gradientUnits="userSpaceOnUse">
<stop stop-color="#DDC99C"/>
<stop offset="1" stop-color="#9D8263"/>
</linearGradient>
<linearGradient id="paint6_linear_39935_5224" x1="6.97279" y1="6.29751" x2="17.7062" y2="6.29751" gradientUnits="userSpaceOnUse">
<stop stop-color="#DDC99C"/>
<stop offset="1" stop-color="#9D8263"/>
</linearGradient>
<linearGradient id="paint7_linear_39935_5224" x1="0.38481" y1="24.1944" x2="11.1155" y2="24.1944" gradientUnits="userSpaceOnUse">
<stop stop-color="#DDC99C"/>
<stop offset="1" stop-color="#9D8263"/>
</linearGradient>
</defs>
</svg>
