<svg width="136" height="48" viewBox="0 0 136 48" fill="none" xmlns="http://www.w3.org/2000/svg">
<path d="M15.2711 33.2461H8.00153L8.00153 14.8448H8.0152L8.00153 14.837L15.2711 10.7002L15.2711 33.2461Z" fill="url(#paint0_linear_48261_9377)"/>
<path d="M31.2663 38.2635H31.2438L23.9919 42.3905V34.1171L23.9958 34.119L23.9958 24.0799H24.0095L23.9958 24.0721L31.2663 19.9354L31.2663 38.2635Z" fill="url(#paint1_linear_48261_9377)"/>
<path d="M23.9947 24.0821H23.9791L16.7252 28.21L16.7252 9.75396L23.9947 9.75396L23.9947 24.0821Z" fill="url(#paint2_linear_48261_9377)"/>
<path d="M16.7211 38.2562L23.9908 34.1195L23.9908 42.3929L16.7211 38.2562Z" fill="url(#paint3_linear_48261_9377)"/>
<path d="M40.0016 23.0443L39.9899 23.0374V33.3177H39.8453L32.7203 37.3724L32.7203 18.9163H32.7477L32.7321 18.9076L40.0016 14.7708V23.0443Z" fill="url(#paint4_linear_48261_9377)"/>
<path d="M39.9887 14.7629L32.7191 18.8997L25.4496 14.7629L32.7191 10.6262L39.9887 14.7629Z" fill="url(#paint5_linear_48261_9377)"/>
<path d="M31.2609 9.74381L23.9913 13.8805L16.7218 9.74381L23.9913 5.60709L31.2609 9.74381Z" fill="url(#paint6_linear_48261_9377)"/>
<path d="M22.6109 33.2571L15.3414 37.3938L8.07187 33.2571L15.3414 29.1204L22.6109 33.2571Z" fill="url(#paint7_linear_48261_9377)"/>
<path d="M128.562 21.6461C130.351 21.6461 131.659 22.0189 132.484 22.7652C133.283 23.5006 133.683 24.6477 133.683 26.2061C133.683 27.8195 133.289 28.9888 132.502 29.7131C131.703 30.4482 130.389 30.8157 128.562 30.8157C126.747 30.8157 125.44 30.4531 124.641 29.7287C123.842 29.0044 123.442 27.8303 123.442 26.2061C123.442 24.6257 123.835 23.4731 124.622 22.7487C125.421 22.0134 126.735 21.6461 128.562 21.6461ZM75.1608 17.1843C77.6101 17.1843 79.3748 17.7004 80.4535 18.7321C81.5446 19.7968 82.0904 21.5638 82.0904 24.033C82.0904 26.5683 81.576 28.3297 80.548 29.3174C79.5328 30.2723 77.7369 30.7496 75.1608 30.7496C72.5722 30.7496 70.7639 30.2231 69.7359 29.1696C68.7461 28.1709 68.2514 26.4586 68.2514 24.033C68.2514 21.5088 68.7462 19.7419 69.7359 18.7321C70.7512 17.7005 72.5594 17.1843 75.1608 17.1843ZM60.2468 17.4808C62.125 17.4808 63.6476 18.0571 64.8151 19.2095C66.0334 20.4058 66.643 22.0413 66.643 24.1157C66.6429 26.2556 66.0587 27.8905 64.8913 29.0209C63.7745 30.0965 62.2265 30.6348 60.2468 30.6349H54.003V17.4808H60.2468ZM87.8274 28.0009H94.8901L94.0712 30.6349H85.3908C84.8072 30.6349 84.5151 30.3275 84.515 29.7131V17.5469H87.8274V28.0009ZM103.983 17.4808C104.465 17.4808 104.776 17.6399 104.915 17.9582C105.766 20.0765 107.473 24.2911 110.036 30.6018H106.476C106.019 29.4495 105.607 28.3902 105.239 27.4244H100.252L98.8047 30.6018H95.3978L101.565 17.4808H103.983ZM121.535 30.5853H118.49V21.6367H121.535V30.5853ZM113.879 26.8974C114.38 26.8974 114.809 27.0732 115.165 27.4244C115.521 27.7866 115.699 28.2093 115.699 28.6922C115.699 29.2079 115.521 29.6466 115.165 30.0087C114.809 30.36 114.38 30.5357 113.879 30.5357C113.379 30.5356 112.951 30.3599 112.595 30.0087C112.239 29.6466 112.061 29.208 112.061 28.6922C112.061 28.2093 112.239 27.7866 112.595 27.4244C112.951 27.0733 113.379 26.8975 113.879 26.8974ZM128.562 23.7696C127.712 23.7696 127.115 23.9509 126.773 24.3131C126.43 24.6753 126.259 25.3119 126.259 26.2226C126.259 27.1334 126.43 27.77 126.773 28.1322C127.115 28.4834 127.712 28.6592 128.562 28.6592C129.412 28.6592 130.003 28.4945 130.333 28.1653C130.688 27.814 130.865 27.1664 130.865 26.2226C130.865 25.3118 130.682 24.6697 130.314 24.2965C129.971 23.9453 129.387 23.7696 128.562 23.7696ZM75.1608 19.8678C73.8538 19.8678 72.9529 20.1315 72.458 20.6582C71.9124 21.24 71.6391 22.3649 71.6391 24.033C71.6391 25.5476 71.9001 26.6013 72.4204 27.194C72.928 27.7864 73.8414 28.0826 75.1608 28.0826C76.5187 28.0826 77.4458 27.8033 77.9407 27.2435C78.4229 26.6838 78.6641 25.6134 78.6642 24.033C78.6642 22.4416 78.3975 21.338 77.8645 20.7234C77.3442 20.1528 76.4425 19.8678 75.1608 19.8678ZM57.2768 27.9844H59.4095C61.9726 27.9843 63.2542 26.6945 63.2544 24.1157C63.2544 22.8536 62.8737 21.8489 62.1123 21.1026C61.4144 20.4222 60.5134 20.0818 59.4095 20.0817H57.2768V27.9844ZM101.298 25.1191H104.325L102.936 21.5469L101.298 25.1191ZM119.994 17.1843C120.463 17.1843 120.869 17.3535 121.212 17.692C121.542 18.0178 121.707 18.4193 121.707 18.8955C121.707 19.3717 121.542 19.7791 121.212 20.1175C120.882 20.4434 120.476 20.6059 119.994 20.6059C119.512 20.6059 119.105 20.4433 118.775 20.1175C118.446 19.7791 118.281 19.3717 118.281 18.8955C118.281 18.4192 118.445 18.0179 118.775 17.692C119.118 17.3536 119.524 17.1843 119.994 17.1843Z" fill="#111111"/>
<defs>
<linearGradient id="paint0_linear_48261_9377" x1="8.22098" y1="33.2461" x2="15.2711" y2="33.2461" gradientUnits="userSpaceOnUse">
<stop stop-color="#DDC99C"/>
<stop offset="1" stop-color="#9D8263"/>
</linearGradient>
<linearGradient id="paint1_linear_48261_9377" x1="24.2115" y1="42.3905" x2="31.2663" y2="42.3905" gradientUnits="userSpaceOnUse">
<stop stop-color="#DDC99C"/>
<stop offset="1" stop-color="#9D8263"/>
</linearGradient>
<linearGradient id="paint2_linear_48261_9377" x1="16.9446" y1="28.21" x2="23.9947" y2="28.21" gradientUnits="userSpaceOnUse">
<stop stop-color="#DDC99C"/>
<stop offset="1" stop-color="#9D8263"/>
</linearGradient>
<linearGradient id="paint3_linear_48261_9377" x1="23.9908" y1="42.1431" x2="23.9908" y2="34.1195" gradientUnits="userSpaceOnUse">
<stop stop-color="#DDC99C"/>
<stop offset="1" stop-color="#9D8263"/>
</linearGradient>
<linearGradient id="paint4_linear_48261_9377" x1="32.9401" y1="37.3724" x2="40.0016" y2="37.3724" gradientUnits="userSpaceOnUse">
<stop stop-color="#DDC99C"/>
<stop offset="1" stop-color="#9D8263"/>
</linearGradient>
<linearGradient id="paint5_linear_48261_9377" x1="25.8885" y1="18.8996" x2="39.9887" y2="18.8996" gradientUnits="userSpaceOnUse">
<stop stop-color="#DDC99C"/>
<stop offset="1" stop-color="#9D8263"/>
</linearGradient>
<linearGradient id="paint6_linear_48261_9377" x1="17.1607" y1="13.8805" x2="31.2609" y2="13.8805" gradientUnits="userSpaceOnUse">
<stop stop-color="#DDC99C"/>
<stop offset="1" stop-color="#9D8263"/>
</linearGradient>
<linearGradient id="paint7_linear_48261_9377" x1="8.51078" y1="37.3938" x2="22.6109" y2="37.3938" gradientUnits="userSpaceOnUse">
<stop stop-color="#DDC99C"/>
<stop offset="1" stop-color="#9D8263"/>
</linearGradient>
</defs>
</svg>
