<svg width="213" height="28" viewBox="0 0 213 28" fill="none" xmlns="http://www.w3.org/2000/svg">
<path d="M6.17383 21.0384H0.640625L0.640625 7.03152H0.651367L0.640625 7.02566L6.17383 3.87722L6.17383 21.0384Z" fill="url(#paint0_linear_39949_139)"/>
<path d="M18.3447 24.8573H18.3301L12.8086 27.9998L12.8086 21.702L12.8115 21.703L12.8115 14.0623H12.8232L12.8115 14.0555L18.3447 10.9071L18.3447 24.8573Z" fill="url(#paint1_linear_39949_139)"/>
<path d="M12.8145 14.0611H12.8037L7.28125 17.2036L7.28125 3.15482L12.8145 3.15482L12.8145 14.0611Z" fill="url(#paint2_linear_39949_139)"/>
<path d="M7.2793 24.8513L12.8128 21.7025L12.8128 28L7.2793 24.8513Z" fill="url(#paint3_linear_39949_139)"/>
<path d="M24.9961 13.2723L24.9824 13.2645L24.9824 21.0917H24.873L19.4492 24.1786L19.4492 10.1297H19.4746L19.4629 10.1229L24.9961 6.97447V13.2723Z" fill="url(#paint4_linear_39949_139)"/>
<path d="M24.9891 6.97058L19.4555 10.1193L13.9219 6.97058L19.4555 3.82183L24.9891 6.97058Z" fill="url(#paint5_linear_39949_139)"/>
<path d="M18.3469 3.14875L12.8129 6.29751L7.2793 3.14875L12.8129 0L18.3469 3.14875Z" fill="url(#paint6_linear_39949_139)"/>
<path d="M6.22465 17.8976L11.7561 21.0456L6.22465 24.1933L6.22465 24.1944L6.22358 24.1936L6.22287 24.1944L6.22287 24.1933L0.691406 21.0456L6.22287 17.8976L6.22287 17.8968L6.22358 17.8972L6.22465 17.8968L6.22465 17.8976Z" fill="url(#paint7_linear_39949_139)"/>
<path d="M134.149 5.06641H139.498L131.83 15.9594V22.7564H127.219V15.893L119.63 5.06641H125.006L129.564 12.0627L134.149 5.06641Z" fill="black"/>
<path d="M116.553 22.7343C115.921 21.1845 115.35 19.7601 114.84 18.4612H107.937L105.934 22.7343H101.218L109.755 5.08854H113.101C113.769 5.08854 114.199 5.30256 114.392 5.73061C115.569 8.57931 117.932 14.2472 121.481 22.7343H116.553ZM113.576 15.3616L111.652 10.5572L109.386 15.3616H113.576Z" fill="black"/>
<path d="M95.7645 5.04427C98.0657 5.04427 99.6993 5.48708 100.665 6.37269C101.667 7.27306 102.167 8.80811 102.167 10.9779C102.167 13.1181 101.658 14.6605 100.639 15.6052C99.6378 16.5498 98.0217 17.0221 95.7908 17.0221H90.5472V22.8007H85.857V7.21401C85.857 6.25461 85.857 5.04427 85.857 5.04427H95.7645ZM94.6841 13.4797C95.6854 13.4797 96.3881 13.31 96.7921 12.9705C97.2312 12.6015 97.4508 11.9373 97.4508 10.9779C97.4508 9.97416 97.2488 9.30996 96.8448 8.98523C96.4759 8.69003 95.7469 8.54243 94.6578 8.54243H90.5472V13.4797H94.6841Z" fill="black"/>
<path d="M82.0855 22.7122H77.8695V12.0184C77.8695 11.2657 77.8695 5.08854 77.8695 5.08854H82.0855V22.7122Z" fill="black"/>
<path d="M68.9207 22.0258C67.6384 20.2251 65.1439 16.7712 61.4374 11.6642V22.7564H57.0107V5.06641H60.2253C60.9982 5.06641 61.5164 5.23615 61.7799 5.57564L69.5268 16.0258V5.06641H74.1116V22.7564H70.4753C70.001 22.7564 69.6848 22.7122 69.5268 22.6236C69.3687 22.5498 69.1666 22.3505 68.9207 22.0258Z" fill="black"/>
<path d="M35.498 5H40.2146V16.9114C40.2146 17.8413 40.4869 18.4908 41.0315 18.8598C41.6112 19.2583 42.6564 19.4576 44.1671 19.4576C45.6251 19.4576 46.644 19.2583 47.2237 18.8598C47.7858 18.4908 48.0668 17.8413 48.0668 16.9114V5H52.7571V16.9114C52.7571 19.4354 52.195 21.0812 51.0707 21.8487C49.9816 22.6162 47.6804 23 44.1671 23C40.4781 23 38.0891 22.5941 37 21.7823C35.9987 21.0295 35.498 19.4059 35.498 16.9114V5Z" fill="black"/>
<path d="M207.286 15.4889C209.05 15.7111 210.315 16.1407 211.081 16.7778C211.812 17.3704 212.177 18.2296 212.177 19.3556C212.177 20.6296 211.74 21.5333 210.867 22.0667C209.941 22.6444 208.355 22.9333 206.109 22.9333C203.65 22.9333 201.94 22.637 200.977 22.0444C200.069 21.4815 199.543 20.4444 199.4 18.9333L203.276 18.5778C203.419 19.2593 203.65 19.7037 203.971 19.9111C204.327 20.1333 205.049 20.2444 206.136 20.2444C207.544 20.2444 208.248 19.9481 208.248 19.3556C208.248 19.0444 208.096 18.8148 207.793 18.6667C207.473 18.5185 206.867 18.3926 205.976 18.2889C203.463 18.0074 201.744 17.5333 200.817 16.8667C200.015 16.2889 199.614 15.3852 199.614 14.1556C199.614 11.8296 201.663 10.6667 205.762 10.6667C208.007 10.6667 209.54 10.9111 210.359 11.4C211.179 11.9185 211.669 12.9259 211.83 14.4222L208.114 14.8667C208.096 14.2593 207.918 13.8519 207.58 13.6444C207.259 13.4519 206.635 13.3556 205.709 13.3556C204.283 13.3556 203.57 13.6222 203.57 14.1556C203.57 14.5111 203.766 14.763 204.158 14.9111C204.639 15.1037 205.682 15.2963 207.286 15.4889Z" fill="black"/>
<path d="M197.368 18.2C196.976 19.9926 196.272 21.237 195.256 21.9333C194.258 22.6296 192.663 22.9778 190.471 22.9778C185.963 22.9778 183.709 20.9852 183.709 17C183.709 14.9556 184.288 13.3926 185.446 12.3111C186.622 11.2296 188.315 10.6889 190.525 10.6889C192.343 10.6889 193.768 10.9852 194.802 11.5778C195.853 12.2 196.664 13.237 197.234 14.6889L193.732 15.6222C193.519 14.837 193.171 14.2889 192.69 13.9778C192.245 13.6815 191.585 13.5333 190.712 13.5333C189.643 13.5333 188.859 13.7852 188.36 14.2889C187.843 14.8222 187.585 15.6963 187.585 16.9111C187.585 19.0296 188.609 20.0889 190.659 20.0889C191.621 20.0889 192.325 19.9111 192.77 19.5556C193.251 19.1852 193.581 18.5111 193.759 17.5333L197.368 18.2Z" fill="black"/>
<path d="M167.344 16.7778C167.344 14.6444 167.896 13.0889 169.001 12.1111C170.124 11.1185 171.968 10.6222 174.534 10.6222C177.046 10.6222 178.882 11.1259 180.04 12.1333C181.163 13.1259 181.724 14.6741 181.724 16.7778C181.724 18.9555 181.172 20.5333 180.067 21.5111C178.944 22.5037 177.1 23 174.534 23C171.986 23 170.15 22.5111 169.028 21.5333C167.905 20.5556 167.344 18.9704 167.344 16.7778ZM171.3 16.8C171.3 18.0296 171.54 18.8889 172.021 19.3778C172.503 19.8518 173.34 20.0889 174.534 20.0889C175.728 20.0889 176.556 19.8667 177.02 19.4222C177.519 18.9481 177.768 18.0741 177.768 16.8C177.768 15.5704 177.51 14.7037 176.993 14.2C176.512 13.7259 175.692 13.4889 174.534 13.4889C173.34 13.4889 172.503 13.7333 172.021 14.2222C171.54 14.7111 171.3 15.5704 171.3 16.8Z" fill="black"/>
<path d="M156.265 5C158.903 5 161.041 5.77777 162.68 7.33333C164.391 8.94815 165.246 11.1556 165.246 13.9556C165.246 16.8444 164.427 19.0519 162.787 20.5778C161.219 22.0296 159.045 22.7556 156.265 22.7556H147.498V5H156.265ZM155.089 19.1778C158.689 19.1778 160.488 17.437 160.488 13.9556C160.488 12.2518 159.954 10.8963 158.885 9.88889C157.905 8.97037 156.639 8.51111 155.089 8.51111H152.095V19.1778H155.089Z" fill="black"/>
<defs>
<linearGradient id="paint0_linear_39949_139" x1="0.807665" y1="21.0384" x2="6.17383" y2="21.0384" gradientUnits="userSpaceOnUse">
<stop stop-color="#DDC99C"/>
<stop offset="1" stop-color="#9D8263"/>
</linearGradient>
<linearGradient id="paint1_linear_39949_139" x1="12.9757" y1="27.9998" x2="18.3447" y2="27.9998" gradientUnits="userSpaceOnUse">
<stop stop-color="#DDC99C"/>
<stop offset="1" stop-color="#9D8263"/>
</linearGradient>
<linearGradient id="paint2_linear_39949_139" x1="7.44829" y1="17.2036" x2="12.8145" y2="17.2036" gradientUnits="userSpaceOnUse">
<stop stop-color="#DDC99C"/>
<stop offset="1" stop-color="#9D8263"/>
</linearGradient>
<linearGradient id="paint3_linear_39949_139" x1="12.8128" y1="27.8099" x2="12.8128" y2="21.7025" gradientUnits="userSpaceOnUse">
<stop stop-color="#DDC99C"/>
<stop offset="1" stop-color="#9D8263"/>
</linearGradient>
<linearGradient id="paint4_linear_39949_139" x1="19.6167" y1="24.1786" x2="24.9961" y2="24.1786" gradientUnits="userSpaceOnUse">
<stop stop-color="#DDC99C"/>
<stop offset="1" stop-color="#9D8263"/>
</linearGradient>
<linearGradient id="paint5_linear_39949_139" x1="14.256" y1="10.1193" x2="24.9891" y2="10.1193" gradientUnits="userSpaceOnUse">
<stop stop-color="#DDC99C"/>
<stop offset="1" stop-color="#9D8263"/>
</linearGradient>
<linearGradient id="paint6_linear_39949_139" x1="7.61341" y1="6.29751" x2="18.3469" y2="6.29751" gradientUnits="userSpaceOnUse">
<stop stop-color="#DDC99C"/>
<stop offset="1" stop-color="#9D8263"/>
</linearGradient>
<linearGradient id="paint7_linear_39949_139" x1="1.02543" y1="24.1944" x2="11.7561" y2="24.1944" gradientUnits="userSpaceOnUse">
<stop stop-color="#DDC99C"/>
<stop offset="1" stop-color="#9D8263"/>
</linearGradient>
</defs>
</svg>
